<mxfile host="Electron" modified="2023-10-20T15:23:42.361Z" agent="Mozilla/5.0 (X11; Linux x86_64) AppleWebKit/537.36 (KHTML, like Gecko) draw.io/22.0.3 Chrome/114.0.5735.289 Electron/25.8.4 Safari/537.36" etag="Kgxz1JlhOEBTUTHwLwaG" version="22.0.3" type="device">
  <diagram name="Página-1" id="GEee1OEaBXpxB0WYmWgN">
    <mxGraphModel dx="1120" dy="1696" grid="1" gridSize="10" guides="1" tooltips="1" connect="1" arrows="1" fold="1" page="1" pageScale="1" pageWidth="827" pageHeight="1169" math="0" shadow="0">
      <root>
        <mxCell id="0" />
        <mxCell id="1" parent="0" />
        <mxCell id="lKl97sVo7K0gIKeFhpwK-1" value="" style="rounded=0;whiteSpace=wrap;html=1;" parent="1" vertex="1">
          <mxGeometry x="250" y="-160" width="860" height="1100" as="geometry" />
        </mxCell>
        <mxCell id="0LYSF5TRQj_s78cTYySr-33" style="edgeStyle=orthogonalEdgeStyle;rounded=0;orthogonalLoop=1;jettySize=auto;html=1;exitX=1;exitY=0.3333333333333333;exitDx=0;exitDy=0;exitPerimeter=0;" edge="1" parent="1" source="lKl97sVo7K0gIKeFhpwK-2" target="0LYSF5TRQj_s78cTYySr-3">
          <mxGeometry relative="1" as="geometry">
            <Array as="points">
              <mxPoint x="240" y="160" />
              <mxPoint x="240" y="580" />
            </Array>
          </mxGeometry>
        </mxCell>
        <mxCell id="0LYSF5TRQj_s78cTYySr-35" style="edgeStyle=orthogonalEdgeStyle;rounded=0;orthogonalLoop=1;jettySize=auto;html=1;exitX=1;exitY=0.3333333333333333;exitDx=0;exitDy=0;exitPerimeter=0;" edge="1" parent="1" source="lKl97sVo7K0gIKeFhpwK-2" target="0LYSF5TRQj_s78cTYySr-8">
          <mxGeometry relative="1" as="geometry">
            <Array as="points">
              <mxPoint x="240" y="160" />
              <mxPoint x="240" y="480" />
            </Array>
          </mxGeometry>
        </mxCell>
        <mxCell id="0LYSF5TRQj_s78cTYySr-53" style="edgeStyle=orthogonalEdgeStyle;rounded=0;orthogonalLoop=1;jettySize=auto;html=1;exitX=1;exitY=0.3333333333333333;exitDx=0;exitDy=0;exitPerimeter=0;" edge="1" parent="1" source="lKl97sVo7K0gIKeFhpwK-2" target="0LYSF5TRQj_s78cTYySr-37">
          <mxGeometry relative="1" as="geometry">
            <Array as="points">
              <mxPoint x="240" y="160" />
              <mxPoint x="240" y="90" />
            </Array>
          </mxGeometry>
        </mxCell>
        <mxCell id="lKl97sVo7K0gIKeFhpwK-2" value="Coordenador de Curso" style="shape=umlActor;verticalLabelPosition=bottom;verticalAlign=top;html=1;outlineConnect=0;" parent="1" vertex="1">
          <mxGeometry x="100" y="140" width="30" height="60" as="geometry" />
        </mxCell>
        <mxCell id="0LYSF5TRQj_s78cTYySr-28" style="edgeStyle=orthogonalEdgeStyle;rounded=0;orthogonalLoop=1;jettySize=auto;html=1;" edge="1" parent="1" source="lKl97sVo7K0gIKeFhpwK-25" target="0LYSF5TRQj_s78cTYySr-24">
          <mxGeometry relative="1" as="geometry">
            <Array as="points">
              <mxPoint x="1170" y="160" />
              <mxPoint x="1170" y="160" />
            </Array>
          </mxGeometry>
        </mxCell>
        <mxCell id="0LYSF5TRQj_s78cTYySr-29" style="edgeStyle=orthogonalEdgeStyle;rounded=0;orthogonalLoop=1;jettySize=auto;html=1;exitX=0;exitY=0.3333333333333333;exitDx=0;exitDy=0;exitPerimeter=0;" edge="1" parent="1" source="lKl97sVo7K0gIKeFhpwK-25" target="0LYSF5TRQj_s78cTYySr-3">
          <mxGeometry relative="1" as="geometry">
            <Array as="points">
              <mxPoint x="1120" y="160" />
              <mxPoint x="1120" y="560" />
            </Array>
          </mxGeometry>
        </mxCell>
        <mxCell id="0LYSF5TRQj_s78cTYySr-30" style="edgeStyle=orthogonalEdgeStyle;rounded=0;orthogonalLoop=1;jettySize=auto;html=1;exitX=0;exitY=0.3333333333333333;exitDx=0;exitDy=0;exitPerimeter=0;" edge="1" parent="1" source="lKl97sVo7K0gIKeFhpwK-25" target="0LYSF5TRQj_s78cTYySr-8">
          <mxGeometry relative="1" as="geometry">
            <Array as="points">
              <mxPoint x="1120" y="160" />
              <mxPoint x="1120" y="480" />
            </Array>
          </mxGeometry>
        </mxCell>
        <mxCell id="lKl97sVo7K0gIKeFhpwK-25" value="Aluno" style="shape=umlActor;verticalLabelPosition=bottom;verticalAlign=top;html=1;outlineConnect=0;" parent="1" vertex="1">
          <mxGeometry x="1200" y="140" width="30" height="60" as="geometry" />
        </mxCell>
        <mxCell id="lKl97sVo7K0gIKeFhpwK-44" value="Gestor de Estágio" style="text;html=1;strokeColor=none;fillColor=none;align=center;verticalAlign=middle;whiteSpace=wrap;rounded=0;" parent="1" vertex="1">
          <mxGeometry x="630" y="-140" width="90" height="30" as="geometry" />
        </mxCell>
        <mxCell id="0LYSF5TRQj_s78cTYySr-3" value="&amp;nbsp;Efetuar Registo na plataforma" style="ellipse;whiteSpace=wrap;html=1;" vertex="1" parent="1">
          <mxGeometry x="650" y="520" width="120" height="80" as="geometry" />
        </mxCell>
        <mxCell id="0LYSF5TRQj_s78cTYySr-14" value="Gestão de estágio" style="text;html=1;strokeColor=none;fillColor=none;align=center;verticalAlign=middle;whiteSpace=wrap;rounded=0;" vertex="1" parent="1">
          <mxGeometry x="1850" y="-99" width="60" height="30" as="geometry" />
        </mxCell>
        <mxCell id="0LYSF5TRQj_s78cTYySr-21" value="Acrescentar assiduidade mensal" style="ellipse;whiteSpace=wrap;html=1;" vertex="1" parent="1">
          <mxGeometry x="820" y="-40" width="120" height="80" as="geometry" />
        </mxCell>
        <mxCell id="0LYSF5TRQj_s78cTYySr-22" value="Acrescentar o plano de estagio" style="ellipse;whiteSpace=wrap;html=1;" vertex="1" parent="1">
          <mxGeometry x="730" y="50" width="120" height="80" as="geometry" />
        </mxCell>
        <mxCell id="0LYSF5TRQj_s78cTYySr-23" value="Acrescentar o relatório de estagio" style="ellipse;whiteSpace=wrap;html=1;" vertex="1" parent="1">
          <mxGeometry x="960" y="-80" width="120" height="80" as="geometry" />
        </mxCell>
        <mxCell id="0LYSF5TRQj_s78cTYySr-24" value="Gerir estágio Aluno" style="ellipse;whiteSpace=wrap;html=1;" vertex="1" parent="1">
          <mxGeometry x="960" y="120" width="120" height="80" as="geometry" />
        </mxCell>
        <mxCell id="0LYSF5TRQj_s78cTYySr-25" value="Extends" style="endArrow=block;endSize=16;endFill=0;html=1;rounded=0;" edge="1" parent="1" source="0LYSF5TRQj_s78cTYySr-21" target="0LYSF5TRQj_s78cTYySr-24">
          <mxGeometry width="160" relative="1" as="geometry">
            <mxPoint x="1070" y="90" as="sourcePoint" />
            <mxPoint x="1230" y="90" as="targetPoint" />
          </mxGeometry>
        </mxCell>
        <mxCell id="0LYSF5TRQj_s78cTYySr-26" value="Extends" style="endArrow=block;endSize=16;endFill=0;html=1;rounded=0;" edge="1" parent="1" source="0LYSF5TRQj_s78cTYySr-23" target="0LYSF5TRQj_s78cTYySr-24">
          <mxGeometry width="160" relative="1" as="geometry">
            <mxPoint x="1100" y="50" as="sourcePoint" />
            <mxPoint x="1030" y="130" as="targetPoint" />
          </mxGeometry>
        </mxCell>
        <mxCell id="0LYSF5TRQj_s78cTYySr-27" value="Extends" style="endArrow=block;endSize=16;endFill=0;html=1;rounded=0;" edge="1" parent="1" source="0LYSF5TRQj_s78cTYySr-22" target="0LYSF5TRQj_s78cTYySr-24">
          <mxGeometry width="160" relative="1" as="geometry">
            <mxPoint x="1180" y="180" as="sourcePoint" />
            <mxPoint x="1090" y="174" as="targetPoint" />
          </mxGeometry>
        </mxCell>
        <mxCell id="0LYSF5TRQj_s78cTYySr-8" value="&amp;nbsp;Efetuar login na plataforma" style="ellipse;whiteSpace=wrap;html=1;" vertex="1" parent="1">
          <mxGeometry x="414" y="440" width="120" height="80" as="geometry" />
        </mxCell>
        <mxCell id="0LYSF5TRQj_s78cTYySr-37" value="Gerir Estagio Coordenador" style="ellipse;whiteSpace=wrap;html=1;" vertex="1" parent="1">
          <mxGeometry x="290" y="50" width="120" height="80" as="geometry" />
        </mxCell>
        <mxCell id="0LYSF5TRQj_s78cTYySr-39" value="Visualizar o plano de estágio" style="ellipse;whiteSpace=wrap;html=1;" vertex="1" parent="1">
          <mxGeometry x="510" y="10" width="120" height="80" as="geometry" />
        </mxCell>
        <mxCell id="0LYSF5TRQj_s78cTYySr-40" value="Visualizar a assiduidade mensal" style="ellipse;whiteSpace=wrap;html=1;" vertex="1" parent="1">
          <mxGeometry x="490" y="-80" width="120" height="80" as="geometry" />
        </mxCell>
        <mxCell id="0LYSF5TRQj_s78cTYySr-41" value="Include" style="endArrow=open;endSize=12;dashed=1;html=1;rounded=0;" edge="1" parent="1" source="0LYSF5TRQj_s78cTYySr-39" target="0LYSF5TRQj_s78cTYySr-22">
          <mxGeometry width="160" relative="1" as="geometry">
            <mxPoint x="680" y="40" as="sourcePoint" />
            <mxPoint x="840" y="40" as="targetPoint" />
          </mxGeometry>
        </mxCell>
        <mxCell id="0LYSF5TRQj_s78cTYySr-44" value="Include" style="endArrow=open;endSize=12;dashed=1;html=1;rounded=0;" edge="1" parent="1" source="0LYSF5TRQj_s78cTYySr-40" target="0LYSF5TRQj_s78cTYySr-21">
          <mxGeometry width="160" relative="1" as="geometry">
            <mxPoint x="741" y="94" as="sourcePoint" />
            <mxPoint x="669" y="86" as="targetPoint" />
          </mxGeometry>
        </mxCell>
        <mxCell id="0LYSF5TRQj_s78cTYySr-46" value="Visualizar o relatorio de estágio" style="ellipse;whiteSpace=wrap;html=1;" vertex="1" parent="1">
          <mxGeometry x="410" y="-149" width="120" height="80" as="geometry" />
        </mxCell>
        <mxCell id="0LYSF5TRQj_s78cTYySr-47" value="Include" style="endArrow=open;endSize=12;dashed=1;html=1;rounded=0;" edge="1" parent="1" source="0LYSF5TRQj_s78cTYySr-46" target="0LYSF5TRQj_s78cTYySr-23">
          <mxGeometry width="160" relative="1" as="geometry">
            <mxPoint x="831" y="4" as="sourcePoint" />
            <mxPoint x="764" y="-4" as="targetPoint" />
          </mxGeometry>
        </mxCell>
        <mxCell id="0LYSF5TRQj_s78cTYySr-49" value="Extends" style="endArrow=block;endSize=16;endFill=0;html=1;rounded=0;" edge="1" parent="1" source="0LYSF5TRQj_s78cTYySr-39" target="0LYSF5TRQj_s78cTYySr-37">
          <mxGeometry width="160" relative="1" as="geometry">
            <mxPoint x="370" y="-30" as="sourcePoint" />
            <mxPoint x="530" y="-30" as="targetPoint" />
          </mxGeometry>
        </mxCell>
        <mxCell id="0LYSF5TRQj_s78cTYySr-50" value="Extends" style="endArrow=block;endSize=16;endFill=0;html=1;rounded=0;" edge="1" parent="1" source="0LYSF5TRQj_s78cTYySr-40" target="0LYSF5TRQj_s78cTYySr-37">
          <mxGeometry width="160" relative="1" as="geometry">
            <mxPoint x="523" y="63" as="sourcePoint" />
            <mxPoint x="417" y="87" as="targetPoint" />
          </mxGeometry>
        </mxCell>
        <mxCell id="0LYSF5TRQj_s78cTYySr-51" value="Extends" style="endArrow=block;endSize=16;endFill=0;html=1;rounded=0;" edge="1" parent="1" source="0LYSF5TRQj_s78cTYySr-46" target="0LYSF5TRQj_s78cTYySr-37">
          <mxGeometry width="160" relative="1" as="geometry">
            <mxPoint x="572" y="-6" as="sourcePoint" />
            <mxPoint x="408" y="76" as="targetPoint" />
          </mxGeometry>
        </mxCell>
        <mxCell id="0LYSF5TRQj_s78cTYySr-54" value="Acrescentar Oferta de Estágio" style="ellipse;whiteSpace=wrap;html=1;" vertex="1" parent="1">
          <mxGeometry x="490" y="120" width="130" height="90" as="geometry" />
        </mxCell>
        <mxCell id="0LYSF5TRQj_s78cTYySr-55" value="Registar Alunos em estagio" style="ellipse;whiteSpace=wrap;html=1;" vertex="1" parent="1">
          <mxGeometry x="440" y="220" width="120" height="80" as="geometry" />
        </mxCell>
        <mxCell id="0LYSF5TRQj_s78cTYySr-56" value="Extends" style="endArrow=block;endSize=16;endFill=0;html=1;rounded=0;" edge="1" parent="1" source="0LYSF5TRQj_s78cTYySr-54" target="0LYSF5TRQj_s78cTYySr-37">
          <mxGeometry width="160" relative="1" as="geometry">
            <mxPoint x="300" y="210" as="sourcePoint" />
            <mxPoint x="460" y="210" as="targetPoint" />
          </mxGeometry>
        </mxCell>
        <mxCell id="0LYSF5TRQj_s78cTYySr-57" value="Extends" style="endArrow=block;endSize=16;endFill=0;html=1;rounded=0;" edge="1" parent="1" source="0LYSF5TRQj_s78cTYySr-55" target="0LYSF5TRQj_s78cTYySr-37">
          <mxGeometry width="160" relative="1" as="geometry">
            <mxPoint x="300" y="220" as="sourcePoint" />
            <mxPoint x="460" y="220" as="targetPoint" />
          </mxGeometry>
        </mxCell>
        <mxCell id="0LYSF5TRQj_s78cTYySr-58" value="Include" style="endArrow=open;endSize=12;dashed=1;html=1;rounded=0;" edge="1" parent="1" source="0LYSF5TRQj_s78cTYySr-3" target="0LYSF5TRQj_s78cTYySr-55">
          <mxGeometry width="160" relative="1" as="geometry">
            <mxPoint x="742" y="90" as="sourcePoint" />
            <mxPoint x="638" y="71" as="targetPoint" />
          </mxGeometry>
        </mxCell>
      </root>
    </mxGraphModel>
  </diagram>
</mxfile>
